<svg width="289" height="242" fill="none" xmlns="http://www.w3.org/2000/svg"><g clip-path="url(#clip0)"><path d="M270.27 19.74c-.41-1.23.29-1.66.29-2.66.16-.82.21-1.5.65-2.16.37-.73 1.24-1.3 1.87-1.73 0-.66-.3-1.66.72-1.66.79.52 1.21-.13 2.16-.29.77.76 1.22.74 2.12 1.04 1.15.38.95-.1 1.26 1.12 0 .53.11 1.07.21 1.58-1.66 0-2.38.68-2.38 2.3-.95 0-1.44-.76-1.44.65-.89 0-2.88.99-2.88 1.87.36.72-.1 1.22-.86 1.22-1.56 0-1.25.43-2.16-.79-.23-.49-.09-.66.44-.49zm6.77 16.56c.59-.1.6-.99-.14-.94 0-3.11.57-.27 1.89.5.66.39.77 2.3.77 3.18 0 .86-.97 1.37-2.02 1.37-.76-.77-1.14-.19-1.94.22-.14-.82-.16-1.71-.36-2.52 0-1.23-.13-.93 1.01-.65 1.84 1.22-.4-1.16.79-1.16zm-3.53-3.53c0 .55-1.29.86-1.87 1.15 0-1.2-1.06-1.04-.36-2.45.88-.88 1.5-.95 2.09.22-.54.08-.35 1.08.14 1.08zm-11.52 10.08c-.6-1.19 1.36-1.81 1.08-3.24.62-.63 1.44-1.01 1.8-1.73 0-.56.58-1.73 1.3-1.73.52-.51.33-1.66.86-1.66.71 0 1.54.37 2.16.79 0 .9-.66 2.1-1.22 2.81 1.02.68 1.09 2.52-.57 2.52-1.56 0-2.37 1.06-2.74 2.52-1 0-1.37.88-1.37 1.73.45.3.9.67 1.32 1.02.94.77 2.34.64 3.5.35 2.72 0 4.55 1.59 6.48-1.3 1.03-1.04.46-3.36 2.3-2.45 1.37.92-.03 2.1.43 3.02-.24.12-3.89 1.09-1.37 1.73.48.95-1.78.94-2.45.94-.54.81-2.4 1.37-3.38 1.37-.96 0-1.94 1.65-2.59.36-1.06 1.07-1.22.29-2.59.29-.46.23-1.66-.24-1.66-.65 0-.65.84-1.58 1.67-1.09.96.56 1.07-.57 1.78-.93-.96-.96-1.92-.22-3.1-.22-.89-.59-1.36-1.82-2.37-2.13-.04 0-.11-.02-.11-.03-.16.02-.32.05-.48.07.02-.81.84-2.12 1.32-2.36zm-9.87 7.49c-1.54 0-.99-.76-1.37-1.87 0-.82-.9-2.09-1.3-2.88.57-.85.53-1.14-.45-1.72-.85-.5-.16-1.59-1.49-1.59-.12-.46 0-1.09-.22-1.51-.53-.17-.77-.5-.72-1.01 0-.77.59-1.29.79-2.09 0-1.32.81-.76 1.3-1.73 0-1.37.45-1.65 1.22-2.81-1.31-.65.14-1.68.14-2.59 1.92-.96.58 2.08 1.01 2.95 1.32 1.32.61 2.48-.14 3.75 0 2.5-.17 5.28.9 7.48-.03-.11.22.2.03.08 2.43 1.6.3 3.42.3 5.54zm-3.02.36c0 1.26-.53.41-1.44.86-.44-.22-.66-.56-.65-1.01.75-.37 1.44-.07 2.09.15zm-3.02-35.14c.68 0 2.77 1.3 2.83 1.67.19 1.14-.58 2.57.33 2.57.72 0 .66-.65 1.44-.65.45.6.5.94 1.15 1.37 0 .85-.05 1.26-.22 2.09-.75 0-.23-.3-.81-.64-.79-.46-1.92.41-2.61-.13-.87-.69-2.12-.85-2.12-2.54-1.24 0-2.27.12-1.22-1.44-.14.22-.22-.07 0 0-1.7-.56.5-2.3 1.23-2.3zm-1.59 32.19c.95 0 3.65.42 1.8 1.8.54.54 1.31.79.14 1.08-.97 0-.87 1.3-1.87 1.3-.52-1.03-2.64-.1-3.6-.58-.81 0-1.93 1.41-2.2-.23-.13-.75-.37-1.35.27-1.8.61-.43.85-.73.85-1.42.22 0 .43-.02.65-.07.17.14.34.29.5.43.86-1.29 2.05.19 3.46-.51zM209.72 36.8c1.13 0 .77.99 1.73 1.37 0 2.38.7 1.22 2.16 1.22 0 1.25-.84 2.77-2.22 2.92-1.62.17-1.95-1.39-1.95-2.84.87-.89.28-1.6.28-2.67zm-.65 15.55c0-.9.86-1.31.86-2.09-.17-.83-.66-2.65-.23-3.34.65-1.02-1.56-2.15-.13-2.85 0 1.32 1.89.75 2.74.58 0 1.53.86 2.27.86 3.6.33.66-.51 1.21-.86 1.66.14.29.21 1.19.21 1.51-.33.5-.87.78-1.37 1.15-.7.7-.08.95-.72 1.58-1.07.54-.75 1.37-2.02 1.37-.26-1.64-.03-1.79.66-3.17zm-2.02-15.69c.14.7.72 1.3.72 1.94-1.14 0-2.12.24-2.95.86-1.36 0-1.75 1.01-2.95 1.01-.25-1.71-.77-1.3-2.23-1.3 0-.82.57-.79 1.44-.79.52-.51.75-.65 1.51-.65 1.4 0 2.81-.36 2.81-1.94 1.06 0 1.04-.06 1.65.87zm-4.75-16.35c.37-.37 1.15-1.1.87-1.66.35-.52 2.95-2.01 2.95-1.01.86 1.71-.92 1.48-1.58 2.81 0 1.61-1.48 1.31-2.52.79.29.14-.22.07 0 0-.74.25-1.03-.93.28-.93zm-2.81 5.48c.47-.72.48-2.23 1.73-2.23 0 1.44.7 1.71 1.01 2.95 0 1.14-.79 1.58-.79 2.59-1.04 0-1.37.24-1.37 1.22-1.52.25-1.37-1.05-1.37-2.45 0 .29-.07-.14 0 0-.51-1.02.79-.96.79-2.08zm-5.04 17.2c.56-.28.88.15 1.23-.45.23-.39.34-.64.71-.92.82 0 1.62-.29 2.45-.29 1.51-2.25 1.59.86 1.8 1.73-.47.24-1.91.21-1.37 1.3-.72 0-.97.76-1.44 1.22-.22.66-1.23.94-1.8 1.22-1.61 0-2.23.18-2.23-1.73 0 .14-.22-.14 0 0-1.35-.9-.28-1.14.65-2.08zm-4.82 10.37c-.14-.43-.21-1.13-.21-1.58 1.26 0 .86-.83.86-1.66 1.38 0 .47-1.3 1.8-1.3.94 0 1.39-.64 1.65.43 0 1.14.26 1.61-.65 2.52.23.93.01 1.44 1.15 1.44 1.04-.53 1.43.39 2.23.79.75-.37 1.74.14 2.52.14.7-.35 3.54-.77 2.73-2.38 1.78-.58 3.31-.56 3.31 1.58-.93 0-.7 1.3-1.8 1.3-.74 0-1.08.72-1.95.72-1.63 0-3.31.49-4.94.64-1.18.11-3.17-.9-4.28-.35-.06-.55-1.39-2.32-1.22-.94 0 .9-1.17.46-1.94.72v-.5c0 .14-.07-.14 0 0-.45-.91.19-1.02.74-1.57zm-7.35-1.73c-1.35.25.14 1.21.14 1.51-.24.72-.65.79-.36 1.66 0 1.02.12 1.42.86 2.02 0 .73-1.11 2.22-1.8 2.74-1.58 0-.49-2.81-2.38-2.81 0-1.05.49-1.67-.29-2.45-1.04-.7-1.47-1.48-2.81-1.15 0-1.69-1.59-1.22-2.66-1.22-1.17 0-1.55-.72-2.66-.72-.74 0-1.73-.41-1.73-1.37-.89-.3-1.93.12-2.16-.79-.65-.65-4.17.2-4.24-.6-.11-1.24-1.38-.34-2.1-1.05-1.33.45-1.23-1.12-1.37-1.94.75-.38 2.54-.41 3.3-.2.9.25 1.6.28 2.46.49.24.43.57.55.99.36.94-.09 1.53.72 2.68.72.48 0 1.49.18 1.87.49.68.54 1.52.09 2.38.09 1.21-.61.69.72 1.57.59.88-.13.71-.72 1.86.11.76.55 1.47.01 2.27.49-.01-.01 0-.01.06.03.79.79 1.64 1.22 2.74 1.22.39.73 1.05 1.11 1.38 1.78zm-15.69-13.39c-.08.51.14.84.65 1.01 0 .58.6 2.02-.22 2.02-.61.61-.86 2.3-1.63 2.37-.89.08-1.82.19-2.69.37-1.55 0-1.07.32-1.66-.86 0-1.49 1.49-2.71 2.74-3.02.99 0 1.87-.02 1.87-1.15-.38-.8.42-.74.94-.74zm-10.66-26.49c.66 0 1.3-.22 1.94-.22 1.73 1.15 1.3-.88 1.3-2.16 1.59-.8 4.25-.66 4.25-3.17.76-.38 1.15.31 1.15.94.42.53.78.48 1.08-.14.46-.69.63-1.11 1.37-1.3 1.47 0 .9.38 2.16.79.67-.67-.12-1.15.94-1.15.48.24.62 1.01 1.25.9.36-.12.67-.01.91.32.65 0 1.29-.22 1.95-.22 0 .74 2.37 2.88 3.02 2.66 0 1.49 2.05 1.97 1 3.16-.43.49.49.97.66 1.3 0 .5.14 1.02.14 1.51-1.71 0-.24 2.32-.15 3.34.13 1.48-.42 2.35-.42 4.01-1.18 0-1.69.55-1.29 1.73-.43.85-.79 1.8-.79 2.66-.25 1.26-.79.71-1.29 1.73-.33.16-1.96 1.14-.36 1.01.44.87.9 1.78.36 2.59 0 1.48-.88 1.49-1.87 2.23-.95 0-3.1 1.77-3.1-.07.97 0 .94-.51.94-1.22 0-.51.32-.7.94-1.01.5-.76 1.15-2.28 1.15-3.24.55-1.63-.09-2.88 2.09-2.88.82-1.22-.14-1.29-.36-2.59 0-.79 1.21-1.29.79-2.16 0-.4-.07-.69-.14-1.08 0-1.04 1.67-1.77.49-2.75-.71-.59-.92-2.43.45-2.43 1.38 0 .78-1.89 1.15-2.81-1.11-.55-2.43.35-2.81-1.15-1.05-1.05-2.85.02-3.67-1.08-.68 0-.68-.72-1.66-.72-.46.23-1.18-.19-1.58-.36-.62 0-1.28-.86-1.82-.57-.44.23-.48.93-1.2.93-2.02-.81-.91 1.44-2.88 1.44-.98.33-1.59 2.23-1.73 2.23-1.21.24-2.06 1.49-3.2.66-.48-.35-2.34 2.14-2.34.71 0 .14-.21-.14 0 0-.44-.22-.66-.56-.65-1.01 1.32-.27.8-.85 1.83-1.36zm-2.59 15.33c0 1.05.21 1.41-.79 2.16 1.2 1.19 1.72 2.34 1.15 4.03 0 1.39-1.73 2.38-1.73 3.74.35.72-.19 1.08-.11 1.67.07.54.54.66.54 1.35-.36.53-.65 1.22.21 1.51 0 .81-.21 1.42-.21 2.23-.59 0-1.83.16-1.37 1.08-1.54.77-1.88-.77-1.37-1.8 0-1.15-.83-2.82.22-3.6-1.31-.88-.42-1.04.14-2.16 0-1.08-.41-1.39.42-2.31.73-.83 1.75-.1 1.75-1.58-.46-.91.25-1.32-.86-1.87-1.78-1.19-1.08-2.63-1.08-4.46 0-1.43 1.87-3.66 1.87-.86 0-.14.07.14 0 0 .24.48.4 1.28 1.22.87zm-2.57 30.86c-.95.68-.3 1.48-.3 2.47-1.14.19-3.1.83-3.25-.75-.06-.66.82-1.11 1.38-1.49 0-.89-.43-.96.5-1.58-.67-.33-.6-.71-1.44-.43 0-.94.43-1.25.43-2.09-.15-.59-.29-1.4-.29-2.02 0-1.26-.62-1.68.36-2.66.87 0 1.43-.32 2.23.22.67 1.35-.07 3.2-.07 4.61.26.51.29 1.6.29 2.16.24.48 1.75 1.51.22 1.51.17.01-.1.11-.06.05zm-8.93-39.9c1.3-.79 2.03-.81 3.51-1.18 0-.81 2.01-1.44 2.88-1.87.63-.16 1.31-.18 1.94-.29.75-.74.42-.62 1.44-.79.73 1.46.83 1.76-.07 3.1.75 1.49-2.21 1.42-1.73 2.88 0 .47-1.63.29-2.45.29-.72 0-1.19.5-1.37 1.22 0 .94-.38.33-1.01.65-.37-.74.94-1.51-.65-1.51-.09-.52-1.46-.26-1.01.65-.62 0-.97-.29-1.58-.29-.46.09-1.04.22-1.51.22-.02-.17-.05-.34-.07-.5 0 .22-.07-.14 0 0-.44-.91.9-2.11 1.68-2.58zm-15.79 24.95c0 1.35-1.58 1.89-1.58 3.31-.54.55-2.66 1.39-2.66-.14 0-2.86 2.27-2.19 4.24-3.17zm-9.72 8.57c.23-.34.5-.72.29-1.15.42-.42.81-.62.94-1.22.53 0 .99-.14 1.51-.14.77.25.72.67 1.66.36.63 0 .66 1.18 1.58.72.7 1.42-1.19 1.06-1.8 1.37-.66.67-1.48 1.37-2.45 1.37-.95 0-1.09 1.02-1.37 1.73.5.99-1.17.04-1.51.22-.01-.22-.04-.43-.07-.65 0-1.05.44-1.83 1.22-2.61zm-1.36 5.26c.88 0 .54.86 1.66.86 1.21 0 1.97-.1 3.17.07 1.24 0 1.8-.67 2.95-.86 1.19 0 1.7.87 3.17.5 0 1.68 1.63 3.02.58 4.61-.66.65-.69 1.15.22 1.51 0 .66.13 1.46.29 2.09-.79.16-1.38.72-2.09.72-.59.89-.22 1.11-.22 2.09-.8 0-1.69-.05-1.87.86-1.04 0-1.53 1.35-2.59.29-.6-.4-1.73-.4-1.73-1.3 1.06 0 1.37-.27 1.37-1.3 1.38 0 1.65-.37 2.45-1.37 1.04-.26 1.5-.46 2.08-1.46.22-.38.51-2.05.51-2.43-1.56-1.56-1.24-.14-2.66-.14 0-1.19-.25-1.89-1.37-2.45-.76.38-1.08 1.11-1.87 1.37-.84 0-1.67.29-2.52.29-.64-1.27-1.51-.92-2.24-1.8a.223.223 0 01-.07-.07c-.02-1.58-.24-1.07.78-2.08zM78.48 28.25c.64.53.48 1.12.63 1.85 0 .65-.92.57-1.44 1.08 0 .51.22 1.01.22 1.51-.21.04-.43.06-.65.07.54 1.07-.59 1.92 0 3.1-1.49.49-1.74 1.29-3.1-.07-.84 1.25.45 1.77.31 3.11-.05.46-.95.31-.95 1.35-.29-.73-2.17 1.5-2.81.86 0-1.25.93-3.11 1.41-4.23.49-1.15-.43-1.78.68-2.9 0-.36.94-5.15-1.44-3.96 0-1.17-.22-.85.78-1.44.46-.27.85-.86 1.38-.86 1.08-.53 1.92 1.41 3.24 1.08.87.01.98-1.18 1.74-.55zM51.6 5.19c.66 0 .79-.65 1.44-.65.29.48.67.58 1.15.29 1.65 1.64 2.03-1.37 3.82-1.37 1.26-.63 2.91-.07 4.18-.07.59-.29 4.41-1.34 3.82-2.52 1.28-.26 1.5.58 2.59.58.45-.45.73-.76 1.37-1.08 1.01-.51 2.12.5 3.17.5 0 1.39 1.88 1.27 1.51-.22 1.15 0 1.62-1.26 2.59-.29 0 1.11.11 1.66-1.3 1.66-.49.73-.43 1.47-.79 2.3-.38 0-1.1-.72-1.43-.29-.76 1-.4 1.16-1.67.65-.29.88-1.28.45-1.8 1.22 0 2.28-2.59 1.54-2.59.29-.18 0-1.62-.44-1.51.22-.2.2-1.44 2.27-1.44.79-.89 0-2 .76-2.52-.29-.47.47-.95 1.34-1.51.22-.35.35-.45.72-1.01.72 0-1.1-1.32-.36-2.09-.36-.88-.88-1.2-.63-2.16-.14-.76 0-1.31-.22-2.02-.22-1.03-.68-.88-.36-2.09-.36-.36.04-.72.09-1.08.14.01-.64.63-1.72 1.37-1.72zm4.64 67.26c1.22.64.05 1.46.26 2.73 0 1.7-4.03 2.79-4.03.07 2.14 0-1.59-4.05-.99-4.77.59-.71.38-4.5-1.17-3.73-.81-1.61-.29-4.13-.29-5.69 1.26-1.88.41-2.62 0-4.68 1.05 0 1.66-.5 1.66.86 0 .83-.49 1.16-.33 2.11.18 1.1 1.27.92 1.77 1.93 1.02-.51.91.1 1.22.72-.78 1.17.44 1.52.79 2.59 0 1.32-1.3.97-1.3 2.16.95.19 1.65.55 1.74 1.54.05.54.88 1.19 1.29 1.69.02.02.04.04.07.08 0 .65-1.07 2.19-.69 2.39zm-7.59-33.78c1.16 0 1.41-1.42 1.22-2.38 1.31 0 3.33-.39 4.03-1.44.68 0 1.23 3.53.43 3.53-.93.93-1.16-.07-1.94.72.25.51.03 1.93 1.15 1.37.94.95.36 1.72.36 3.1-.97 0-.85-1.18-1.36-1.19.04 0-1.13 1.61-1.25 1.75-.52.63-.81 1.47-1.28.52 0-.94-.65-.8-1.22-1.37-.9-.91-.77-.33-1.3-1.37 0-.78.43-.86.43-1.58.01-.69-.41-1.66.73-1.66zm-.79 12.89c1.37 0 1.99-2.45 3.67-2.45.63 1.28 2.59 1.99 2.59 3.24.78.26.86 2.18.86 2.95-1.61.27-2.12-.65-3.6-.65-.91.18-3.31-.41-3.31-1.58 0 .22-.07-.14 0 0-.18-.37-.15-1.11-.21-1.51zM14.81 22.98c-.54-1.61-.39-2.42 1.15-2.81.48 0 1.04-.14 1.51-.22.85-.85-.14-.58-.14-1.51-.43-.86.99-.53 1.44-.65 0 .79.45.9 1.03.58 1.03-.57 1.8.25 2.57-.14.23 1.6 1.32-.47 1.44-.65.91-.91 1.2-1.79 2.52-.79.7 0 1.59-1.01 2.3-1.37.86 0 1.44-.72 2.02-1.3-2.02-1.35 1.14-1.87 2.23-1.87 0 2.11 2.19.22 3.1.22.92 0 1.37.22 2.23.22-1.18-2.39 1.75-3.52 3.24-2.02.64-.64 1.45-1.37 2.45-1.37.98 0 1.41-.79 2.37-.79.63-.63 1.63-.79 2.52-.79.61 0 .68 1.13 1.46.55 1.74-1.29-.45 3.12-.45 3.33-.95 0-2.38.03-2.38.94-4.05 0-.14 1.63-.14 3.6 0 .51.53 1.08-.29 1.08-.38.19-1.04.21-1.37-.05-1.47-1.18-1.62.05-3.31.05-.96-.96-2.49-.93-3.62-.24-1.06.65-2.11.32-3.08-.41-.6.6-3.25.93-1.94 1.8 0 1.33-2.07.58-1.97.23-.21.72-.4.78-1.05.13-.82 0-1.62.29-2.45.29-.7.35-1.07-.28-1.83-.21-.76.07-.86 1.14-1.05 1.72-.83 0-2.24.55-2.45 1.37 0 1.95-.59-.11-1.44 1.15 0 2.5-3.89-.12-3.89 2.02-.53 0-1.11-.22-1.5-.16-.58.08-.75.52-1.52.52.29 0-.22.07 0 0-.82.27-.64-2.45.29-2.45zm26.36 24.4c-.95 0-.64-.09-.79-1.01-2.08 0-2.02 1.97-2.02 3.38-1.51 0-1.1 1.51.22 1.51.64.16 2.59.89 2.59 1.15-.39.1-3.09.03-3.02.43 1.04 1.05 2.95.8 2.95 2.66-1.8.9-.78 1.32-1.15 2.81-2.03 0-1.84 1.54-.79 2.59 1.64 0 1.56 1.69.36 2.59.57.09.81.4.72.94-2.84 1.4-.39 5.24-2.81 7.06.27.54-1.37-.15-1.37 1.22.36.74-.17 2.39-.58 2.59 0-1.85-.89-2.88-1.22-4.54 0-.82 2.28-4.61.07-4.61-.32-1.28.3-1.91 0-3.1 0-.63 1.05-.94 1.37-1.73.88-.88-.36-1.78.72-2.59.55-.55-.1-1.32-.29-2.09 0-.74.23-2.01-.04-2.47-.43-.7-.38-1.37-.53-2.14-1.05-.52-1.37-1.06-1.37-2.23.54-.8.05-.8-.22-1.58 1 0 1.44-.14 1.44-1.22.57-1.14.16-1.07-.72-1.94-.38-.76.42-.55.72-1.15-.46-.19-.65-.53-.58-1.01 0-.22.57-1.62-.22-1.51 0-.56 1.07-1.58.62-1.86-.77-.49-.82-1.66-.05-2.24 1.36-1.35-.14-3.25-.14-4.61 1.91 0 .59-2.16.9-3.23.37-1.3.2-1-.04-2.17 0-.91-.55-1.16.29-1.58-.4-.81-.64-3.13.14-3.53-1.99-1.32 2.17-3.51 3.46-.94 0 .51.14 1 .14 1.51-.51.77 0 .67.22 1.51-.27.4-.89 2.25-.72 2.59-.48 0-1.1.12-1.58.22-.47.08-.29 1.08.14 1.08.46.91-.67.62.22 1.51.25-.12.82-.14 1.08-.14.92.92.58 1.5.36 2.59 1.29 1.29-.76 1.23-.14 2.45-.76.25-1.82-.72-1.44.79-.66.98-.67.77.14 1.58.22.44-.79 1.39-.79 2.09 0 1.14.87.77.29 1.94-.73.1.8 3.02 1.1 3.22 1.23.82 3.2-.4 3.65 1.46-.18 0-.36.03-.53.06.1.01-.18.13-.12.01-.39.82-.82.79-.64 1.68zm42.4 22.33c-1.09 1.09-1.42.93-2.88 1.3-.74.74-1.42 1.2-2.55 1.4-.85.16-1.1.66-.62 1.62-1.16 0-2.08.86-3.02.86-.74-.73-1.14-.09-.94.72-.96.19-1.44.12-1.44 1.15-.78 0-.25-.8-1.1-.68-.68.09-.37.7-.62 1.13-.35.6-3.22.41-2.6 1.64-.31.04-.63.09-.94.14 0-1.37-2.74-2.37-.43-3.53-.81-.54-.86-.8-.86-1.87.76-.38.54-1.21.29-2.23 1.51 0 .19-1.61 1.3-2.16.47-.71.28-1.69 1.22-2.16-.7-.7-1.33-.21-1.66-.86 0-.83.91-1.37.65-2.16 1.08 0 1.32.2 2.16-.22 0-.99-.79-.59-.79-1.44 0-.91-.15-2.24-.43-3.1 0-1.37.52-2.15.14-3.67 1.15-.58.39-.87.22-2.09.52 0 .99-.14 1.51-.14 0-.67-.22-1.34-.22-2.02-.45-.91.79-1.3.79-2.23-.47-.93-.15-2.46.01-3.41.14-.81-.05-1.54.56-1.84 1.56 0 1.85.54 2.52-.79 1.22-1.2 1.39 1.49 1.22 2.15-.32 1.28-.44 4.62-1.8 4.62-.86 1.3 1.16 1.86-.07 3.1.42.85.16 1.67-.38 2.32-.39.46-.7.99-1.13 1.42a.87.87 0 00-.84.28c-.18.41.43 1.47.55 1.95-1.48 1.48-.86 3.79-.86 5.69.36.72-.54 1.64-.07 2.59 0 .44-.92 1.28-1.37 1.73-.4.07-.27.75-.12.95.42.57.43.35-.09 1.14-.42.84-.55 1.13-.29 2.16-1.06 1.59.57 1.37 1.73 1.37.61-.92 1.82-1.38 2.59-.36.29-.57.86-1.04.86-1.66-.41-.83.46-.94.95-.47.72.69 2.08-1.41 2.22-2.13.49 0 1.57-.06 2.02-.29.46-.46.92-1.03 1.61-1.09.6-.06 1.34-.13 1.92-.28.98.98.92-.22 1.94-.22 1.42.94-.01 1.45-.86 1.67zm14.19-2.96c-.22.44-.56.66-1.01.65 0-1.08-1.21-.68-1.73-1.37-1.6.4-1.36-.85-2.23-1.73-1.01 1.52-.93-.45-2.16-.14-1.23 0-1.61-1.7-.79-2.52-.8-.53-.86-2.05-.86-3.02 1.11-1.12.5-1.83.5-3.17 0-1.21-.2-2.01 1.28-2.16 2.12-.21.74-1.81.74-2.74 1.72-1.71 3.08-3.59 4.97-1.08.81.81 2.1.4 2.3 1.22 0 1.01 1.37 1.01 2.09.65 0 .8.54 1.1 1.22 1.44.18.36.22 1.11.22 1.51-1.21 0-1.66 1.53-2.59.29-.91 1.37-.67.39-1.58-.22-.9 0-.88-.74-1.51.22-.7 0-1.15-.16-1.15-.94-.37-.73.78-1.11.29-2.09-.57 0-2.57-.39-2.02.72-2.2 1.08-.53 2.83-.01 1.93.89-1.53 2.16 1.28 1.07 1.89-1.15.64-2.86.01-2.86 1.66.21 1.02.23 2.08.43 3.1-1.31 0-.85.66-.23 1.17.77.64 1.12 1.8 2.18 2.07 1.07 0 .52.35 1.51-.14-.18-.32-.13-.56.14-.75.43-.59.42-.98 1.22-.98.76-1.5 2.95-2.73 2.95-4.54 1.16-.29 1.5-.59 2.45-1.3.72-.36 1.01-1.3 1.87-1.3 0 .79.65 1.04.65 1.94-.54.27-.88.86-1.37 1.22-1.1 0-1.21 2.34-2.38.79-.7.7.05 2.3-1.22 2.3-.4.61-.93.68-.2 1.23.23.3.51.36.85.21 0 .48.12 1.1.22 1.58-.92 0-2.38 1.32-2.38 2.3.47 1-.69.28-.87.1zm123.98-20.66c-1.34 1.34-.29 1.02-.29 2.66 0 .93.43 1.37 1.3 1.37.75.75 1.63.14 2.59.14.92.62.92.95 1.22 1.87-.75 0-.79.55-1.51.79-.35-.71-.94-1.01-1.65-.86-.7-.69-1.17-.11-2.02-.49-.79-.35-1.32-1.03-2.16-1.03 0-1.16.07-1.88.07-3.1 0-.77-.26-1.25-.04-2 .23-.75.02-1.15.61-1.75 0-1.06.5-.69 1.02-1.32 1.03-1.26-.59-2.64 2.01-2.64 1.22 0 2.03-1.51 3.38-1.51.02.19.05.38.07.58 0-.29.22.14 0 0 1.85 1.23-1.37 2.66-1.94 3.82-.27.4-1.49 1.46-1.95 1.8-1.19.01-.71.96-.71 1.67zm13.32 3.96c-.37.27-.46.61-.29 1.01-2.09 0-1.52 2.59-3.38 2.59-.86-1.14-2.97-.34-4.03-.07-.28-.85.93-2.23 1.73-2.23.89.45 1.44.44 1.44-.72.6 0 .64-.25 1.01-.72.36-.71.76-.53 1.44-.65 1.02 0 1.59-1.16 2.23-1.8.42-.63 1.35-2.77.65-3.24-1.13.57-1.3-1.12-1.3-1.8 1.55 0 1.54-1.05 1.22-2.3 1.97-.28-1.62-1.28-1.31-1.03-.9-.75-1.77-.49-2.79.02-.71 0-2.03-.93-2.74-.58 0-1.05.14-1.73 1.3-1.73.64-.21 1.28-.86 1.94-.86.35-.17 3.1 2.69 3.1.22-.88-.88.43-3.35 0-3.62-.9-.56-.95-.3-1.15-1.49.66-.99.27-.68-.14-1.51-.25-.51-1.05-2.02-.29-2.02.48-.08.33-1.08-.14-1.08-1.06.54-.05-.95.08-1.17.54-.93.64-.92.64-2-.49-.98 1.41-1.17.14-2.02 0-.87-.29-1.72-.29-2.59.53-.53-.16-1.16-.29-1.94.58-.87.21-1.12.21-2.09.75 0 2.02-.5 2.02-1.3-.61-.41-1.42-.91-.22-1.51 0-.5-.07-1.56-.29-2.02.52-.53.72-.99.72-1.66.88 0 .71-.65 1.47-.76 1.11-.18.82-.7 1.12-1.56.26-.74 1.38-3.88 2.1-2.43 0 .72.6 1.58-.43 1.58-.51.77-.83 1.48-.21 2.09 0 .9-1.1.52-.99 1.2.1.63.85.32.85 1.4-.85.42-1.3.68-1.3 1.73.96.96-.08 1.15.72 1.94 0 .95-.95.69-1.3 1.73-.57.58-.29.87-.29 1.58-.8.07-.71 1.14.14 1.01 0 .69-.33 1.12-.87 1.66-1.06.53-.86.53-.86 1.66 0 .44-.24 1.56-.11 1.82.55 1.08 0 1.19-.97 1.92.51.68.86 1.12.86 2.02.41.82-1.18 1.02-.12 1.8.73.53.25.98.62 1.73 0 1.8 3.11 1.71 2.02 3.89 0 .49.07 1.51.29 1.94-.48.16-1.49-.07-1.39.74.19 1.43 2.18.62 2.18 2.29-.62 1.24-.41 2.45-1.01 3.67 0 1.48.78 2.42-.72 3.17-1.86.93-.53 2.23-1.58 3.31l-.01.01c-.59.57-.46.77-1.43.77z" fill="#fff"/></g><g clip-path="url(#clip1)"><path d="M109.42 213.16c-.15.07 0-.22 0 0zm-27.86-59.47c0 1.71.62.75 1.37 0-.52-.39-.95-.64-1.37 0zm-6.05 26.92c0 1.54.13 3.46.94 4.68v5.54c0 1.1-.15 2.03-.94 2.81-1.11 1.11-1.7.94-3.24.94-1.54 0-2.13.17-3.24-.94 0-1.01-.5-1.56-.5-2.38 0-1.25.46-2.3 1.87-2.3 1.01 0 2.3 0 2.3-1.37-.88-1.33-2.25-.94-3.67-.94-1.06 0 .02-1.37-1.44-1.37-1.01 1-.86 1.62-.86 2.99v2.12c0 .66.43.68.43 1.37 0 1.84 1.37 3.4 1.37 5.11.47.47.94 2.09.94 2.74.48.48.94 1.72.94 2.38 0 .67.5.7.5 1.37v1.44c.73.37.43 1.63.43 2.3v4.18c0 1.64-.9 1.37-2.3 1.37-1.18-.79-1.44-.75-1.44-2.3 0-.77-.43-1.39-.43-2.3 0-1.07-.43-1.93-.43-2.81 0-.47-.53-2.4-.94-2.81 0-1.94-.94-3.26-.94-5.11 0-.92-.94-1.79-.94-2.74 0-.5-.52-2.39-.94-2.81 0-2.07-2.5-2.3-4.18-2.3-1.15 0-1.37-.69-1.37-1.87-.65-.65-.94-1.36-.94-2.3-.85-.86-.65-2.01-1.44-2.81 0-.96-.43-1.35-.43-2.3 0-1.19-.94-2-.94-3.24 0-.79-.43-1.42-.43-2.38-1.16-.77-.5-5.2-.5-6.48v-1.87c0-.67.5-.7.5-1.37.41-.81.76-2.2 1.37-2.81v-3.24c-.91-.92-1.87-1.48-1.87-2.81 0-1.36.82-3.36 0-4.18 0-.64.29-2.13-.24-2.55-.63-.49.02-1.85-.69-2.57 0-1.02-.43-1.89-.43-2.74 0-2.01-.94-4.04-.94-6.05 0-1.31-.5-2.14-.5-3.31v-2.99-3.83c0-1.02-.43-1.13-.43-1.96 0-.82-.34-2.22-.94-2.81 0-2.01-.94-3.45-.94-5.54 0-2.07-.86-4.62-2.3-6.05v-3.24c0-1 1.59-2.1 2.3-2.81 2.1 0 3.52-2.74 5.62-2.74.18-.55.85-.94 1.37-.94.34-.52.93-1 1.37-1.44.49-.49.94-2.13.94-2.81 0-1.8 1.04-4.78 2.3-6.05 0-1.98 2.81-3.5 2.81-5.54 1.09-1.09 1.6-2.81 3.23-2.81 1.26 0 4.1-.48 2.81 1.44 0 .83-.34 2.15-.94 2.74 0 .94-.3 2.17-.94 2.81-1.18 1.17-1.87 1-1.87 2.81-.85.85-.07 1.87-.94 2.74 0 1.57-2.15 4.53-3.24 5.62 0 .93-.31 2.61-.94 3.24 0 1.04-.43 1.95-.43 2.81 0 2.19-1.87 2.94-1.87 5.11 0 1.18-.43 1.2-.43 2.09 0 1.47.43-.02.43 1.38v3.95c0 1.26-.43 2.09-.43 3.24v1.37c0 .76-.5.68-.5 1.44v1.87c0 .66-.43.68-.43 1.37 0 1.17-.5 1.71-.5 2.81 0 1.11-.43 1.69-.43 2.74 0 1.46-.1 2.8-.32 4.25-.3 1.96.83 4.68 2.19 6.05 0 1.11.43 1.69.43 2.74 0 .99-.36 2.66.5 3.24v9.79c1.1 2.19 4.97-1.44 5.98-1.44.76-.76 2.23-.94 3.31-.94 1.99 0 1.55.26 2.74 1.44 0 .67.48.92.94 1.37 0 .7-.16.93.5 1.37 0 1.38 1.02 1.59 1.8 2.38 1.82-1.83-.43-2.64-.43-4.68-2.02-2.02 1.87-.91 1.87.94.38.38.94 1.84.94 2.3 0 .96.43 1.57.43 2.38v3.24c0 1.11-.35 1-.94 1.87-1.46.73 0 4.51 0 5.54 0 .97.5 1.55.5 2.3 0 .79-.15 1.28.44 1.86zm-12.1-6.91c.37-.56 1.33-.66 1.87-.94.56-.84 1.45-1.14 0-1.87-.54 0-1.56.47-1.87.94-.86.43-1.36 1.87 0 1.87zm-2.74-3.31c.92 0 .97-.94 1.87-.94.73-.73.08-.78-.5-1.37-1.03.01-2.69 1.43-1.37 2.31zm5.12 13.03c0-1.36-1.16-.98-.5 0h.5zm.43-3.74c0-1.64-4.18-1.34-4.18.5.8.8 4.18.74 4.18-.5zm.5-4.18c-1.19-.79-1.53 0-2.81 0-1.42 0-1.79-.08-2.81.94 1.3 1.29 1.4.5 2.81.5.75-1.13.79-.94 2.3-.94.18-.16.35-.33.51-.5zm6.92-6.98c.7 0 .9.11 1.44-.43-1.04-1.04.1-2.3-1.87-2.3-1.33 1.32-.83 1.47.43 2.73zm0 0c.14 0-.15-.15 0 0zM27.7 190.84c-1.37 0-1.44 1.24-1.44 2.3 1.27 0 2.58-2.3 1.44-2.3zm.94-3.75c0 .87-.5 1.25-.5 2.35 0 1.52.56 1.05 1.44.46.59 0 .13-2.81-.94-2.81zm37.58-11.08c.14-.22-.29 0 0 0zm-40.39 20.88c1.01 0 0-1.19 0 0zM13.3 99.33c0-.7-.36-.43-.94-.43v2.3c2.07 0 .94-.54.94-1.87zm13.89 22.32c.76-1.14 2.38-.07 2.38-1.73 0-1.86-.16-2.09-1.44-3.39-.56 0-.94 1.61-.94 2.3-.53.55-.91 2.82 0 2.82zm137.88 97.05c-1.54 0-2.99-.94-4.61-.94-1.47 0-3.19-.94-4.68-.94h-6.98c-.67 0-.7.5-1.37.5-.31.29-.6.6-.86.94 0 .63.43.74.43 1.37.34 0 2.05.56 2.3.94 1.14 0 1.68.43 2.76.43 1.07 0 1.71-.43 2.85-.43.93 0 1.39.94 2.3.94h5.54c1 0 4.88-2.81 2.32-2.81zm14.91 10.23c0-.15-.15.14 0 0zm-23.26-73.37c0 .14.15-.22 0 0zM27.19 118.84c0-.15-.14.14 0 0zm3.75 79.41c1.22 1.22 1.87-.74 1.87-1.87-1.45 0-1.87.3-1.87 1.87zM2.57 232.67c0 1.3.76.86 1.87.86 1.4 0 1.37.15 1.37-1.37 0-1.82-3.24-.53-3.24.51zm138.46-49.25c.14 0-.22-.21 0 0zm37.08 37.59c0-.01 0-.01 0 0-.04.03-.08.07 0 0zM11.86 208.05c.14-.22-.14.07 0 0zm14.4-38.09c.14-.36-.15 0 0 0zm.93-6.55c0-.15-.14.14 0 0zm17.21 17.2c0-.14-.14.15 0 0zm-22.75-31.1c-.03.02-.04.04-.07.06.02-.01.12-.06.07-.06zM8.19 202c.14.14 0-.15 0 0zm15.33-32.98c.07-.14-.21.15 0 0zm-9.29 24.63c0-.15-.21.14 0 0zm9.29 0c1.01 0 1.26-.11.43-.94-.68 0-.43.34-.43.94zm24.55-20.88c0-.91-1.8-2.27-1.8-.94s.65.94 1.8.94zm12.6-2.38c.15 0-.21-.14 0 0zm-52.99-57.6c.15.14.15-.14 0 0zm43.2 64.58c0 1.69-1.87 1.02-1.87 3.24.67.67 1.01 2.81-.43 2.81-1.06 1.05-2.4.33-3.24-.5-.75-.76-2.71-.3-3.24.5-2.53 0-4.36 1.87-6.98 1.87-1.08 0-2.3-.94-3.49-.94-1.58 0-1.81 1.71-2.99 2.3 0-1.46-2.12-1.87-3.24-1.87-1.02.68-.94 2.11-.94 3.24-.44.2-.61.51-.5.94-.42-.1-.74.07-.94.5 0 .71.42 2.3-.43 2.3-1.11 0-2.91-.39-3.74.43-1.32 0-1.36 3.13-.43 3.74 1.55.78 2.19 0 3.67 0 1.5 0 1.89-.94 3.31 0 0 1.26-1.5 2.36-2.38 3.24-1.27 0-2.39.94-3.67.94-1.27 0-1.84 1.89-2.3 2.81-1.49 0-2.26.31-3.31 1.37 0 .78-.22 1.39.5 1.87.35.7.94.59.94 1.44 0 .99-2.47 1.8-3.31 1.8-.47.47-1.17.94-1.87.94-.43.43-.6.94-.94 1.44-.47.23-.92 1.35-1.37 1.8H5.82c-1.14-1.14-2.08-1.16-3.24 0 .53.53 1.09 1.44 1.87 1.44.7 0 .84-.09 1.37.43.92 0 2.25-.33 2.81.5 1.55 0 3.24-.57 3.24 1.37 1.26 1.26-.39.94-1.37.94-.98.98-2.87 2.25-1.44 3.67.61 0 .92.19 1.44.5h2.81c.3-.9 2.43-.5 3.24-.5 1.18 0 1.69-1.37 2.81-1.37 1.08 0 2.74.56 2.74 1.87 0 2.09-1.75.05-2.3-.5-1.89 0-.77 1.87-2.3 1.87-1.01.67-1.96.5-3.27.5-1.07 0-4.65-.64-4.65.86-.53.53-.53.83-.94 1.44-.67 0-.7-.5-1.37-.5-1.54-1.54-1.81.6-2.38 1.44 0 .83-1.86-.06-2.3-.5-.63.63-.4 1.47-1.37.5 0-.79.1-.83-.5-1.44v-2.74c-1.26-1.9-.43-6.35-.43-8.66 0-6.21.43-12.19.43-18.34v-2.74c.23-.58.5-.79.5-1.44 0-.67-.5-.7-.5-1.37v-1.37c0-1.41-.43-2.28-.43-3.74v-4.9-5.76c0-1.14.43-1.98.43-3.24v-12.6c0-16.1-.43-32.16-.43-48.24.92-1.38 1.87-1.95 1.87-3.74 0-1.08-1.44-1.67-1.44-2.81-1.19-1.19-.08-5.04.94-6.05.97-.97 1.87-1.87 3.24-1.87.81.8.94 1.66.94 2.81 0 1.28.41 2.38 1.87 2.38 0 1.31-.43 1.68-.43 2.74 1.02 0 2.51 2.08 3.24 2.81 1.65 0 1.37.31 1.37 1.87 0 1.51 2.29-.94 2.81-.94.83 0 1.3.79 1.87 1.37 1.09 1.09 1.74.94 3.24.94.59-.59 1.09-.43 1.87-.43.35-1.03 1.37-.76 1.37.29v2.45c0 .76.5.68.5 1.44.31.62.94.58.94 1.37.23.45.49 1.07.94 1.37v1.87c0 .73-.5.66-.5 1.37-.96.96 0 1.71 0 2.81 0 .73.5.66.5 1.37V129.49c0 1.08.62 3.74-.94 3.74-.97 0-2.32.4-2.81 1.37-1.37.92.5 1.94 1.37 1.94 1.68 0 2.38-.48 2.38 1.37-1.52.5-2.38 1.16-2.38 2.81.91.46 1.32 1.37 2.38 1.37 0 .63.43.74.43 1.37v2.1c0 1.01-.43 1.85-.43 3.01v3.74c0 1.4-1.43.93-1.87 1.8-1.23.83.43 3.31-1.44 3.31-1.24 1.23-.42 2.73.94 1.37.7-.7.25-1.19.94-1.87.73 0 1.44-.43 1.44.5.54 1.08.08 2.22 1.37 2.74.95-.94.76-2 1.87-2.74 1.52 0 1.07 1.37 2.3 1.37.49-.49.86-1.37 1.37-1.37 0 .78.5.68.5 1.58 0 1.04-.1 2.59 1.37 2.59.51.51.94.2.94.86v1.87c0 1.13-1.37 1.69-1.37 2.81 0 .74 2.72 2.81.43 2.81-1.29 0-1.77 1.46-.94 2.3 1.01 1.01 1.3.94 2.81.94.97 0 1.85-.94 2.74-.94.4-.4 1.44-1.71 1.44-.43 0 1.36.28.89.94 1.87.99 0 1.81 1.56 2.3 2.3 1.34.03 7.37-.83 7.37 1.39zM9.56 113.73c.69 0 .93-.16 1.37.5 1.31 0 1.87.03 1.87-1.44 0-1.3-1.78-1.37-2.81-1.37-1.1-1.11-1.55.61-2.3 1.37.72.73.86.94 1.87.94zM8.19 202c1.04 1.04 4.04.29 2.3-1.44-1.44-1.45-2.3.05-2.3 1.44zm4.17 5.61c-1.13-1.71-2.29-.5-3.74-.5 0 1.78 2.1 1.5 3.24.94l.5-.44zm1.87-13.96c0-.76-.5-.68-.5-1.44-1.08 0-.78.5-1.87.5-.87 0-1.67-.21-2.3.43 0 .84 1.04 1.87 1.87 1.87 1.68 0 1.52-.51 2.8-1.36zm1.88-59.48c-1.35-.91-3.08-.73-4.25.43 0 1.42 3.07.68 3.74 0 .07-.07.04-.04 0 0 .17-.14.34-.28.51-.43zm1.8-17.2c0-.85-.75-2.3-1.8-2.3-.74.5-.17.94-.94.94-.71 0-.73-.43-1.44-.43-1.77 0-.99 2.74.5 2.74 1.55 0 2.07-.16 3.24-.94.15-.01.29-.01.44-.01zm3.31-4.61c0-1.06-.5-.6-.5-1.37-1.14 0-1.22.58-.43 1.37h.93zm3.24 39.45c0-1.58-1.38-2.3-2.81-2.3-.08.05-.08.06-.07.06-1.45 1.08 2.05 2.24 2.88 2.24zm-1.87 16.71c0 .94.24.97.94.5.49-.98-.48-1.43-.94-.5zm3.67 0c-.55.54-1.38 1.44 0 1.44.33-.83.74-.71 0-1.44zm.93-5.11c0-2.67-1.87 0-2.3 0 0 .84.26.99.94 1.44 1.02 0 .79-.87 1.36-1.44zm2.38.5c0-1.65-1.68-.24-.5.94.43-.2.6-.52.5-.94zm14.83 16.7c0-.67-.5-.7-.5-1.37-1.79.01-.85 2.73.5 1.37zm20.88 2.81c.15 0-.14-.21 0 0zm-26.49 4.18c2.07 0 0-2.07 0 0zM13.3 218.27c.07-.22-.22 0 0 0zm.43.43h3.31c1.71 0 3.24-1.51 3.24-3.24 0-1.93-2.84-.69-3.24.5-.96 0-1.41.43-2.38.43-.16 0-1.22 1.43-1.37 1.87-1.18.01-.18.44.44.44zm235.87-90.14c-.14 3.6.15 0 0 0zm-126.21-13.9c1.15 0 1.67.5 2.74.5 2.09 0 4.03 1.8 6.05 1.8 1.83 0 4.27 2.39 5.62 3.74 1.37 0 1.47 1.75 2.3 2.3.76.76 2.3 2.19 2.3 3.24 1.31 1.31 1.91 4.68 4.18 4.68 1.06 1.07.86 1.75.86 3.24 0 1.15-1.04 3.08-.19 3.93.46.46-.2.75.62.75.94.47.64.43 1.87.43 1.27 0 1.97-.43 3.25-.43h5.18c1.14 0 2.18-.59 3.24-.94.38-1.14 1.87-1.46 1.87-2.81 0-1.06.43-1.69.43-2.81 0-1.11.75-1.87 1.87-1.87.52-.53.43-.66.43-1.37 0-.9.5-1.09.5-1.87 0-1.97 1.8-3.54 1.8-5.54.76-1.14 1.32-1.59 2.38-2.3 1.26 0 2.23.16 3.24-.5 0-.98 1.62-2.12 2.3-2.81.96-.96 1.51-.86 2.81-.86.58-.86 2.29-.5 3.24-.5h6.05c1.56 0 7.81-.97 8.78.5 1.62 0 6.55.89 6.55-1.44 0-.65-.95-2.74-1.44-3.24 0-.63-.43-.74-.43-1.37-.7-.7-.26-1.2-.94-1.87 0-1.22-1.37-2.02-1.37-3.24-1.28 0-1.99.43-3.24.43-.85-.57-2.81-1.46-2.81-2.74 0-.73.43-.74.43-1.44-.85 0-1.08.5-1.8.5-1.76 0-1.36-1.36-2.38-2.38-.65-.66-1.62-.68-2.3 0-.7.71-1.19.26-1.87.94-1.12-1.11-2.12-1.69-3.24-2.81-1.18-1.19-1.74-2.6-2.81-3.67-.91-.91-.94-1.96-.94-3.24 0-.99.05-.94-.94-.94-.66.65-.43 1.42-.43 2.3.81.81.43 2.63.43 3.74-1.45 1.44-2.47.27-3.67-.94 0-.76-.5-.68-.5-1.44 0-1.17-.92-.94-1.8-.94 0 .94-.42 3.18.43 3.74-.57.38-.62.94-1.37.94-.59 0-.94-.25-.94.43-1.25 0-2.3-2.99-2.3-4.18 0-.74-.92-2.22-1.44-2.74 0-.94-.3-2.17-.94-2.81 0-.93-.94-1.41-.94-2.3-.46-.68-.43-.63-.43-1.44-1.09 0-1.14.21-1.87.94-.51.51-2.04 2.83-2.74 1.44-.8-.81-1.66-.94-2.81-.94-.62.42-1.04 1.64-1.37 2.3 0 1.29-2.38 2.19-2.38.43-.64-.64-.94-1.8-.94-2.74 0-1.23-1.86-.01-2.3.43-1.33 0-3.17 3.46-3.17 4.68-.91.91-1.42 1.78-2.38 2.74-1.09 1.09-1.72.94-3.24.94-3.26 0-1.21-2.95 0-4.18.83-.83 1.44-.83 1.44-2.3 0-.97-1.69-2.13-2.38-2.81-1.18 0-1.44.07-2.3.94-.65.65-1.9 1.87-2.81 1.87-.55.55-1.94 1.37-2.74 1.37-1.07.72-.96 1.46-1.87 2.38 0 1.57-1.37 3.38-1.37 5.04 0 2.15-.29 4.18-.94 6.12 0 1.89-.77 3.95-2.12 5.3-.6.6-1.13 1.36-1.63 2.11-1.56 0-1.37 1.65-1.37 2.74.06.84.33 2.41 1 2.85zm122.97 63.22c.15-.22-.14.07 0 0zM36.05 148.57c.89 0 .41-.96 0-1.37-1.24.01-1.24 1.37 0 1.37zM264 143.46c0-.14-.14.15 0 0zm-55.22-50.18c0-1.07-1.44-2.07-1.44-.94 0 .58.78.94 1.44.94zM66.72 144.4c-1.45-.96-3.2-.54-4.18.94 0 .84-.5 1.24-.5 2.3.9 0 1.09.5 1.87.5 1.23 0 2.81 1.52 2.81 2.74 0 .94.26 3.24 1.37 3.24.61.61 1.19.75 1.87 1.44.72.72 1.37 2.37 1.37.43 0-1.52-.3-3.1-1.37-4.18-1.16-.77-2.81-2.32-2.81-3.67-.69-1.04-.43-2.47-.43-3.74zm-27 25.99c.89.89.24 1.1 1.44.5.85 0 1.08-.5 1.8-.5.73 0 1.44-.61 1.44-1.37h-1.87c-1.05 1.05-2.81.57-2.81-.94 0-1.45.5-2.47.5-3.74 1.28-1.28.04-3.2-.94-4.18-1.3-1.3-1.87 1.36-1.87 2.3v5.11c0 .89-.14 1.23.5 1.87.69.69 1.15.29 1.81.95zm200.16 14.9c0-.21-.21.15 0 0zm4.61-5.11c0-.21-.14.15 0 0zm-29.23-40.89c0-1.4.32-2.3-1.44-2.3-.59 0-.87 1.61-.87 2.3v2.3c1.13 0 1.59-1.58 2.31-2.3zm72.43 55.29c-.73.73-1.95 1.29-.94 2.3v2.3c0 .79-1.2.43-1.87.43-.89 0-1.8-.51-2.3 0-.47.47-1.17.94-1.87.94-1.07 1.08-2.73 1.65-2.73 3.24.75 0 4.18-1.43 4.18-.43-.7.7-.5 1.39-.5 2.38 0 .75-.55 1.29-.94 1.87-1.34 0-1.05.77-2.3-.5l-1.87-1.87c-2.03-2.02-3.07 1.44-4.18 1.44-.93 0-1.51.43-2.3.43-.7 0-.7-1.37 0-1.37.58-.87 2.26-.61.94-1.94-.87 0-1.23-.14-1.87.5-.69.7-.99 1.32-1.8.5-.86 0-1.43-.13-1.87-1.01-1.81-1.22-.5-2.76-.5-4.18-1.01 0-1.13-.86-2.3-.86-.47.46-1.07.27-1.37.86-1.11 0-1.44.29-1.44-.86-.48-.48-.94-.75-.94-1.44-.8-.8-1.65-2.3 0-2.3 1.13 0 2.93.38 3.75-.43 1.46 0 1.76-2.1 2.81-2.81 1.27 0 2.08.43 3.24.43.93.93 2.31.95 3.24 1.87.6.6 1.43 1.37 2.3 1.37 0-.64 1.34-.84 1.87-1.37.59-.59.43-1.08.43-1.87.75-.74.78-1.96 0-2.74-.76 0-1.28.84-1.8 1.37-1.38 0-1.87.08-1.87-1.37 0-.82-.5-1.35-.5-2.38-.68-.68-2.74-1.67-2.74 0 1.68 0 .76 1.44-.5 1.44-.72 0-1.8-1.27-1.8.43-2.37 1.58-2.52-1.06-3.74-2.3-1.13 0-2.65.2-3.24 1.37-1.02.68-1.05 1.44-2.38 1.44-.7.7-2.51.72-3.24 0h-2.3c-3.01 0 2.23-3.16 2.81-3.74.47-.47 1.63-1.37 2.3-1.37.58-.87 1.56-1.57 2.3-2.3.98-1.47 3.21-3.7 4.68-4.68 0-.49.81-1.8 1.12-2.11.27-.27.75-1.7.75-2.06 0-3.05-3.84-.43-5.11-.43-.62.21-2.44 1.75-2.81 2.3-.75.37-2.38 2.04-2.38 2.81-1.58.78-4 5.21-5.98 3.24-1.91 0-3.24 2.94-3.24 4.61-1.93 1.29-4.11 1.37-6.55 1.37-.91.92-1.51 2.02-2.3 2.81-.93.93-.11 1.87-1.87 1.87-.62.62-1.38.1-1.8.94v2.75c0 1.04.19 1.17-.5 1.85-.43.43-1.11.41-1.37.94-.94.62-1.87 1.01-1.87-.43v-3.24c0-1.08.94-2.29.94-3.31 0-1.03.43-1.64.43-2.74.66-.99.97-1.91 1.87-2.81.81-.81.94-1.62.94-2.81 0-.69.43-1 .43-1.8v-1.87c.62-.93.5-1.63.5-2.81 0-1.13.43-1.98.43-3.24 0-1.17.5-1.71.5-2.81s-.36-2.96.43-3.74c0-.91-.32-2.19.5-2.74 0-1.14.43-1.74.43-2.81 0-.35.55-2.55.94-2.81 0-.72 1.87-3.3 1.87-1.8 0 1.52-1.04 1.28.43 2.74 3.08 0 1.8-3.82.5-5.11-2.12 1.41-1.78-1.37 0-1.37 1.46 0 2.3-1.49 2.3-2.81 0-.69-.79-1.31-1.4-1.58-.7-.31-1.41.51-1.84 1.15 0 2.29-.94 1.11-.94-.43v-4.18c-.45-.44-.94-1.23-.94-1.87 0-1.82 1.03-2.47 2.3-3.74.56-.57.85-1.48 1.44-1.87 0-.72-.93-1.36-1.44-1.87-1.55-1.55 1.12-1.8 1.87-2.3 0-.79-.43-1.35-.43-2.3.67-.67 1.2-.84 1.8-1.44 0-1.38-2.39-1.88-3.24-2.74 0-1.34.94-2.84.94-4.18 0-1.46 1.76-1.45 2.81-1.87 1.56-2.35.94-6.16.94-9.06 0-1.3.42-3.48-.5-4.4 0-1.36.26-2.95 1.44-3.74-.68-.46-.94-1.94-.94-2.74-.48-.48-.94-1.73-.94-2.38v-1.37c0-.76-.5-.68-.5-1.44 0-.86.21-1.66-.43-2.3v-4.61c0-.79.43-1.37.43-2.3 1.12 0 1.8 0 2.81-.5 1.11 0 1.61.5 2.81.5 1.04 1.04.41 4.64-.5 5.54v16.71c0 .96-.43 1.41-.43 2.38v1.37c0 .67-.5.7-.5 1.37v3.24c0 1.79-.38 5.11 1.87 5.11 1.09 0 1.8-.03 2.81-.43.52-.77.72-1.65 1.37-2.3.81-1.2 3.05-3.08 4.68-1.44.8.8.98 2.27 2.3.94.81-.81 1.44-1.53 1.44 0 .42.86 1.93.5 2.73.5 1.23 0 1.47-.61 2.3-1.44.84 0 .79-.5 1.44-.94H271c.62.62 1.94.94 2.81.94.76-.76 1.45-5.47 3.24-3.67V117c0 1.1-.94.68-.94 1.87 1.12 0 2.3.3 2.3 1.37 0 1.23.74 1.87 1.87 1.87 0-1.39 1.43-2.74 2.81-2.74 0 .75-1.2 2.74.43 2.74 1.28 1.28 2.3-.41 2.3 1.87-.77.77-2.21 1.87-3.24 1.87-1.76 1.76-5.54 1.72-5.54 5.11 0 .73-.5.97-.5 1.8-.78.78-.16.94-1.37.94-.63-.63-1.9-1.8-2.81-1.8 0 1.15-.86 2.1-.86 3.24.87 0 2.47 1.79 3.24 2.3h1.8c.71 0 .73-.43 1.44-.43.87 0 2.16-.86 2.73-1.44.36-.36 2.38-2.41 2.38-.94.71.71 1.37 1.84 1.37 2.81 0 1.75-.8.5-1.87.5-.62.3-.43.83-.43 1.37 0 .87.65.5 1.37.5.68 0 .94 1.53.94 2.3 1.78.88-.43 4.99-.43 6.05 0 2.09 2.3 3.61 2.3 5.54-1.26 1.25-5.23 1.53-3.74 3.74 0 .6 1.44 2.3 1.87 2.74.93.93 1.01 1.95 1.87 2.81v2.81c0 1.06-.5 1.59-.5 2.74.64.64.94 1.9.94 2.81 0 .76.5.68.5 1.44v1.37c.7.69.43 1.85.43 2.81 0 .8-.08.78.5 1.37v2.81c-.93.94.09 1.8-1.44 1.8-1.11 0-1.8-.94-2.74 0v4.18c-.82.82-2.13.43-2.81 1.44 0 2.37.34 4.35-1.37 6.05 0 1.2 1.8.89 1.8 2.3.89.9 1.8 1.44 2.81.43 1.14-1.13-.59-1.72.43-2.74.53-.53 2.09-1.44 2.81-1.44 1.81-.03.45.96-.01 1.41zm-37.58-54.79c.56-.84 1.97-.68 2.74-1.44 1-1 .57-1.93 1.44-2.81.5-.5 1.8-2.07 1.8-2.81-.58-.57-.65-1.15-1.37-.43-.7 0-.94.25-.94.94-.93 0-1.19-1.63-1.87-2.3 0-.87-1.45-2.38-2.3-2.38-.09 2.14-.17 4.29-.26 6.43-.05 1.16-.91 4.8.76 4.8zm-1.44 2.3c.39.2 1.15 1.44 1.44 1.87.71-1.06.94-1.05.94-2.38-.58-.58-1.87-1.58-1.87 0l-.51.51zm-2.74 28.8c.49-.74.23-1.87-.94-1.87-.07.04-.07.06-.06.06-.8.64.14 1.81 1 1.81zm-2.37 1.88c0 .99.67.94 1.44.94.85-1.28-.5-.38-.5-1.44-.55-.01-.94-.12-.94.5zm-3.68 12.52c0-1.19-1.19-.77-1.87-1.44-1.85 1.84-.12 1.32.94 2.38.26-.36.57-.67.93-.94zm4.61-5.11c0-1.59-3-.94-4.18-.94-1.82 1.85 3.42 1.69 4.18.94zm2.38-2.81c-.9-.6-1.67-1.37-2.81-1.37-.82 0-.77.09-1.37-.5-1.03 0-1.03.5-1.87.5 0 2.31 4.02 2.63 5.54 1.87.17-.16.34-.33.51-.5zm16.7-23.25c0-2.46-2.32-2.3-4.18-2.3-1.61 1.63 1.58 1.58 2.3 2.3 0 1.44-2.97 1.28-3.74.5-.52 0-1.87-2.53-1.87-3.24 0-.89-.14-1.23.5-1.87.74 0 1.37-.62 1.37-1.37 0-1.79-3.08-.89-3.67 0-.99 0-1.16-.22-1.87-.94 0-.9-.94-.95-.94-1.87-1.27-1.9-1.9-.49-2.81.43 0 2.7-1.37 5.12-1.37 7.92 0 1.56-.43 2.61-.43 4.18 0 .74-.5 1.01-.5 1.87 0 1.09.21 1.14.94 1.87 1.83 0 1.94 2.38 2.81 3.24v3.67c0 1.02-.5 1.56-.5 2.38 0 1.53-.43 2.8-.43 4.18 0 1.41-.34 3.03.43 4.18.87-1.31 2.48-2.84 2.16-4.52-.41-2.18.14-3.69.14-5.71 1.22-1.21 2.4-2.84 3.74-4.18 0-.62.31-1.44-.43-1.44-.8 0-1.28.16-1.87-.43-1.38 0-1.26-3-.5-3.74.84-.83 2.58-1.37 3.74-1.37 2.47 0 6.98-.47 6.98-3.74zm.43-10.66c0-1.12-.91-1.37-1.8-1.37-.91-.92-2.38-.75-2.38.74 0 .94-.19 1.38.5 2.07.67 0 .7-.5 1.37-.5.99 0 1.65-.28 2.31-.94zm2.81 2.81c-.57-.86-2.03-.67-.94.43.31-.16.62-.3.94-.43zm5.11-3.74c0-.98-.79-1.3-1.37-.43-1.37.45.11 1.4.43 1.87.44-.66.94-.6.94-1.44zm1.87 57.09c0-1-1.02-2.22-1.87-1.37-.87.86-.94 1.12-.94 2.3.82.83 1.29 1.96 2.3.94.01-.74.51-1.01.51-1.87zm11.09-10.15c-1.68 0-.91.92-1.8 1.8 0 1.59.32.5 1.37.5.96 0 1.87-.51 1.87-1.37 0-1.2-.33-.93-1.44-.93zm-8.78-83.16c1.01 0 0-1.02 0 0zM29.07 141.16c1.16 0 0-2.21 0 0zm236.8 5.54c.29-.14-.14-.14 0 0zm-5.11-34.85c-.14-.14 0 .15 0 0zm.94 0v-1.8c-1.19 0-2.01.73-.94 1.8 0 .88.94.88.94 0zm22.32 17.21c0 1.02-.05 2.81-1.44 2.81 0 2.36 3.24-1.01 3.24-2.38 0-1.33-1.8-2.13-1.8-.43zm-13.97 87.77c0 1.32.34.94 1.44.94 1.13 0 1.37-.24 1.37-1.37 0-1.83-2.81-.62-2.81.43zm-25.06-47.81c-.03.02-.04.04-.06.06.03.01.16-.06.06-.06zm39.89 33.41c-1.6 0-1.8-.31-1.8 1.37.67 0 .7.5 1.37.5.89 0 1.1-.5 1.87-.5 0-.91-.89-.82-1.44-1.37zm-5.04 13.97c-1.57 0-.94-2.61-.94-3.74-1.27-.84-2.13-.86-3.74-.86 0 2.31 1.06.55 2.3 1.8 0 1.31 1.13 2.1 0 3.24-.62.62-.43 1-.43 1.87 0 1.69-.02.92.94 1.87.63 0 .74.43 1.37.43 1 0 1.48-.43 2.3-.43.39-.6.96-1.39 1.44-1.87.89-.88 0-.91 0-1.87-1.26-.01-1.98-.44-3.24-.44zm-40.46-21.82c0 1.73-.86 3.28-.86 5.04 0 1.19-.5 1.71-.5 2.81 0 .96.26 2.11-.43 2.81 0 1.81-.56 5.11 1.8 5.11h1.44c.77 0 .19-.44.94-.94v-3.24c-.78-.52-.5-1.52-.5-2.38 0-.46.54-2.35.94-2.74 0-1.98 1.37-3.51 1.37-5.62v-2.74c0-1.46-.33-1.76-1.37-2.81-2.15.02-1.57 3.45-2.83 4.7zm-4.61 10.66c0 1.15 2.02 0 0 0zm1.87-5.62c.68 0 .43-.29.43-.86-.99 0-2.34.86-.43.86zm-19.51-48.24c0 .84.43 1.71.43 2.74v3.74c0 2.13-.94 3.99-.94 6.05 0 1.27-.43 2.08-.43 3.24v9.29c0 1.1-.5 1.64-.5 2.81-1.04 1.04-.43 4.56-.43 6.05.83.82.28 2.25.94 3.24 0 1.23.37 2.81-.5 3.67 0 1.27-.43 1.98-.43 3.24-.89.89-.07 1.95-.94 2.81 0 1.32-.5 2.07-.5 3.24 0 .56-.41 2.35-.87 2.81 0 .96-.4 2.51-.94 3.31 0 1.14-.94 1.67-.94 2.74 0 1.18-1.44 2.05-1.44 3.24-.75.74-1.23 1.96-1.8 2.81 0 1.23-1.87 1.54-1.87 2.81-1.01.67-1.95 1.87-2.81 2.74-1.43 1.43-4.02 1.87-6.05 1.87-2.08 0-2.84 2.81-5.04 2.81-1.92 0-4.68 1.52-4.68 3.67-1.63 1.64-6.05-1.17-6.05 2.38 0 .87.13 1.17-.5 1.8-1.27 0-.57-.13-1.37-.94 0-1.01-.77-2.3-1.87-2.3-1.28 0-2.33.03-3.24.94-.82.82-2.08.5-3.24.5-1.17-1.18-2.75.45-3.67 1.37-.98.66-1.56.94-2.81.94-.86 0-.85.43-1.87.43h-1.87c-.59 0-2.45.36-2.74.94-2.55 1.69-2.76 4.68-6.12 4.68-1.54 0-1.8-.48-1.8-1.9 0-1.61.23-2.55-.94-3.72-1.03 0-2.21-.94-3.17-.94-.66-.66-1.13-2.61-2.38-1.37-.56.56-.16.94-.94.94-.64 0-.86.25-.86-.5 0-1.52-1.74-1.37-2.81-1.37-1.16-.77-1.67-2.3-3.24-2.3h-4.68c-2.38 0-4.78-.17-6.48-1.87-2.18-2.18-6.48.52-8.35-1.37-1.06 0-2.06.25-2.81-.5-.94 0-2.11.27-2.81-.43-1.96 0-4.59-1.43-5.98-2.81-2.08-1.39-3.31-1.83-3.31-4.61 0-1.02-.45-3.11.5-3.74 1.14-1.14 1.87-1.58 1.87-3.24 0-1.43-3.31-4.85-4.68-5.54 0-1.17-.43-2.04-.43-3.31-.66-.44-.5-.68-.5-1.37 0-.74-.42-.93-.94-1.44-.91-.9-1.8-1.43-1.8-2.74v-3.24c.56-.56.94-2.49.94-3.24 0-1.31-.01-2.39-.94-3.31 0-.89-.94-1.76-.94-2.74v-4.18c0-.6.31-3.03.94-3.24 0-.89.66-2.34 1.37-2.81.83-.83.58-2.01 1.37-2.81.78-.78 1.7-.94 2.81-.94 1.27 0 3.27-.4 4.18.5 1.12 0 1.74.43 2.81.43.62.62 1.82.94 2.74.94.55.55 2.28.94 3.03.94.77 0 2.93-.35 3.52-.94 1.04 0 2-.4 2.81-.94 1.97 0 3.67-2 3.67-3.74h-5.62c-1.29 0-2.49-.43-3.67-.43-1.96 0-3.69-2.81-5.54-2.81-.77-.77-2.21-1.37-3.31-1.37-.64 0-1.37-1.75-1.37-2.3-.83-.83-.97-1.9-1.87-2.81-.5-.5-1.8-2.07-1.8-2.81-.86-.58-1.87-2.28-1.87-3.24 0-.49-.54-2.34-.94-2.74 0-1.45.43-2.35.43-3.74.2-.3.59-1.2.94-1.37 0-.68-.16-1 .5-1.44 0-1.1.94-1.56.94-2.74.53-.79.86-1.84.86-2.81.55-.82.55-2.21 1.44-2.81 0-1.2 1.37-1.69 1.37-2.81 1.03-1.03 1.71-2.14 2.81-3.24.57-.57.35-.79.94-1.37.67 0 .91-.48 1.37-.94 1.08 0 1.67-1.44 2.81-1.44.58-.58 1.91-.86 2.74-.86.91-1.37 5.95-.5 7.49-.5 2.24 0 3.34 2.81 5.54 2.81.88.88 2.28.42 3.24 1.37.86 0 2.14.7 2.81 1.37 2.21 0 2.3 3.57 2.3 5.11 0 1.1.94 2.04.94 3.31.67.34.94 2.09.94 2.81 0 .85.43 1.71.43 2.74.76.76.5 1.76.5 2.81v4.18c-.88.58-.36 1.94-.94 2.81 0 1.21-.51 1.88-1.37 2.74-.86.57-1.06 2-1.87 2.81 0 1.83-.08 2.89-1.37 4.18-.52.35-1 .93-1.44 1.37-.58.58-.8.36-1.37.94-1.14 0-1.71 1.44-2.81 1.44-.7.7-2.3.58-2.3 1.8 0 2.06 5.41-1.37 6.05-1.37 1.25-1.25 3.7-2.3 5.54-2.3 0 2.38.29 4.83-1.37 6.48 0 .77-.88 2.25-1.44 2.81 0 1.12-.43 1.74-.43 2.81 0 1.22-.43 2.3-.43 3.67 0 .58.42 2.36.86 2.81 0 2.5 3.02 3.38 4.18 5.11.91.91 1.07.94 2.38.94.5-.76.72-1.14 0-1.87-1.17-.77-1.44-1.88-2.38-2.81 0-.57-.98-2.34-1.37-2.74v-3.24c0-2.35.84-4.84 3.24-6.05.67-.99 1.87-1.53 1.87-2.81 0-1.04-.31-2.5.43-3.24 0-1.09.67-2.54 1.44-3.31.47-.47 1.87-2.08 1.87-2.74 1.52-1.53 3.55-3.79 1.73-5.62 0-1.28-.86-1.94-.86-3.24-1.18-1.18 0-2.5 0-3.67 0-1.94 2.94-3.74 4.61-3.74h2.3c.72 0 .75.5 1.44.5.7 0 2.3 1.13 2.3 1.8 1.34 1.35 1.31 4.18 3.74 4.18.29.57 1.34.9 1.87 1.44v1.37c0 1.42.09 1.66.87 2.81.72 0 1.87 1.54 1.87 2.3.71.71 1.04 2.25 1.87 2.81 1.95 1.96 3.88 4.1 6.05 5.54.73 0 .89.46 1.37.94.73 0 .83-.1 1.37.43.94 0 1.8.94 2.81.94 1.1 0 1.99.94 3.24.94.76 0 .68.5 1.44.5h1.8c.78 0 2.25-.89 2.81-1.44.79-.79 2.24-.43 3.31-.43.47-.94 2.85-.62 3.67-1.44 1.39-1.4-.96-1.77-1.87-.86-1.12 0-1.68.43-2.73.43-1.04.69-.54.94-2.01.94h-3.18c-2.12 0-3.83-1.37-5.97-1.37-1.53-1.52-4.03-1.73-5.62-3.31-.59-.59-1.2-.7-1.87-1.37-.56-.56-.31-.81-.87-1.37-.99-.66-.65-2.02-1.44-2.81 0-1.12-.43-1.74-.43-2.81 0-.89-.94-1.76-.94-2.74 0-.8-.37-2.67-.94-3.24 0-1.04-.43-1.95-.43-2.81v-6.05c.46-.46.86-2.16.86-2.74.55-.82.55-2.29 1.44-2.88 0-.73 1.23-2.31 1.87-2.74 0-.74 1.3-2.31 1.8-2.81.88-.88 2.38-1.98 2.38-3.24.7-.7 1.7-2.3 2.74-2.3.56-.83 1.92-.5 2.81-.5 1.3 0 2.35-.7 3.92-.22 1.25.39 2.68.22 4 .22.89 0 2.3 1.24 2.3-.43 0-2.42 3.71-1.87 5.54-1.87 1.27 0 2.21.94 3.31.94.74.74 2.17 1.02 2.74 1.87.43.44.92 1.03 1.44 1.37v2.81h-1.87c-.76 0-.68-.5-1.44-.5-.94-.96-2.24-1.3-3.24-2.3-1.1 0-1.56-.94-2.74-.94-1.57 0-.5 1.87.43 1.87 1.13 0 1.89.76 2.81 1.37 1.03 1.04 1.63 2.13 2.73 3.24 0 1.39 1.53 1.31 2.38 1.87 1.44 0 1.39 1.27 2.3 1.87 0 .76.26 2.36.94 2.81 0 2.35.94 4.17.94 6.48 0 1.05-.23 2.3.22 3.25.66 1.4-.22 2.53-.22 3.74v3.24c-.79.52-1.35 2.02-1.87 2.81-1.12.74-1.42 1.84-2.3 2.74-1.03.68-1.93 1.93-2.81 2.81-.76.75-2.17 2.81-3.24 2.81-.63.43-.77.82-.06 1.15.77.36.67-.22 1.43-.22.84 0 2.09-1.39 2.81-1.87.92-.91 1.35-1.85 2.3-2.81 0-.9 2.03-2.72 2.81-3.24.39-.39 2.28-.94 2.74-.94.68-.68 1.44-1.84 1.44-2.74 0-1.14.43-1.75.43-2.81 1.37-2.09 5.62-2.01 5.62.89zm-107.71 61.78c0-1.8-2.33-1.4-3.24-.5 0 .89.14 1.23-.5 1.87 0 1.15.92.65 1.44 1.44.46-.7 1.58-2.46 2.3-2.81zm47.3-57.6c0 1.15 1.61 1.79 2.38 2.3 0 .91 1.18 1.69 1.8 2.3 1.17 1.19 2.81 3.42 2.81 5.11 0 1.58-.56 3.69.94 4.68 0 .8 1.21 1.86 1.87 2.3 0 1.65 1.8 1.04 1.8-.43 0-.68-.89-1.9-1.37-2.38 0-1.01-.94-1.87-.94-2.81 0-.61-.48-1.85-.94-2.3 0-1.09-.43-1.71-.43-2.74 0-1.02-.92-1.49-1.37-2.38-1.75-1.17-1.06-3.49-1.87-5.11 0-1.69-4.1.6-4.68 1.46zm-12.45 28.29c1.2 0 1.99-.43 3.33-.43h5.38c.38-.58 2.17-1.37 2.81-1.37 1.58-2.35 4.23 2.3 5.62 2.3.43.86 2.17 1.03 2.74 1.87.52 0 2.38.47 2.38.86 2.79 0 3.67-2.97 3.67-5.54-1.15 0-1.31 1.02-1.87 1.87-1.35 0-1.77.04-2.73-.94 0-1.63-2.81-3.05-2.81-4.61-.86-1.28-3.13-2.81-4.61-2.81-1.38 0-3.9-.25-4.68.94-1.38 0-2.05.6-3.24 0-1.13 0-1.38-.94-2.38-.94-1.01-1.53-3.72-1.81-5.04-.5-1.09 1.09-3.24 2.86-3.24 4.68 0 .26-1.23 1.87 0 1.87 0 1.18.62 1.48 1.44 2.3 1.34.02 1.92 1.76 3.23.45zM178.11 221c3.51-3.52-3.34-4.16-5.12-5.04-2.38 0-4.02-2.73-6.05-3.74-.7 0-1.42-1.86-2.3-2.3-.72-.72-1.84-1.88-2.3-2.81h-4.18c-1.19 0-1.71.5-2.81.5-1.25 0-2.86.38-3.74-.5-1.06 0-1.93-.43-2.81-.43-.85 0-1.08-.5-1.8-.5h-1.8c-.84 0-2.22.35-2.81.94-1.61 0-4.62.5-5.54 1.87-.58.19-2.38 2.72-2.38 3.24-.85.43.04.94-.86.94-.34.11-1.23.63-1.44.94-1.03 0-2.3.7-2.3 1.87-1.33.66-1.87 1.11-1.87 2.74.97.97 1.77 1.61 2.81 2.3 1.2 0 1.95.58 2.81 1.44 1.65 1.66 2.37 3.67 5.04 3.67.78 0 .98.5 1.87.5H148.72c1.34 0 2.44.43 3.83.43 1.06 0 2.06-.25 2.81.5 1.25 0 1.99.43 3.24.43.83.83 1.85.3 2.81.94h6.48c2.33 0 4.21-1.08 6.05-2.3.67-1 1.48-1.99 2.3-2.81-.01-.87 1.24-2.19 1.87-2.82.06-.06.03-.03 0 0zm1.87 7.93c0-.98-.86-1.29-1.44-.43 0 1.03.83 1.03 1.44.43zm-151.34-83.6v4.18c0 .62-.3 1.37.43 1.37.81 0 1.37.06 1.37-.94 0-1.02.32-2.49-.43-3.24-.01-1.5-.16-3.19-1.37-1.37zm257.18 69.2c.14 0-.15-.15 0 0zM30 130c.75-.74.94-4.18-.43-4.18-1.39.93-1.44 4.18.43 4.18zm.94 5.11c2.73 0 0-2.74 0 0zm76.61 33.41c1.36 0 2.23 1.44 3.74 1.44 1.12 0 2.44.31 3.24-.5 0-.81-2.38-1.37-3.24-1.37-.91-.92-2.26-.46-3.24-1.44-1.25 0-2.81-2.15-2.81-3.24 0-.78-2.07-.43-2.81-.43 0 1.23 1.01 2.37 1.87 3.24.89-.01 2.6 1.65 3.25 2.3zm123.04 39.53c-.1.03-.09.03-.06.03-.56.23-.62.91.06.91.79-.01.79-.94 0-.94zm55.23 6.48c-.92-.92-1.86.01-.94.94.74-.01 2.34-.94.94-.94zM20.28 112.36c.07 0-.21-.22 0 0z" fill="#fff"/></g><defs><clipPath id="clip0"><path fill="#fff" transform="translate(14)" d="M0 0h265.56v78.99H0z"/></clipPath><clipPath id="clip1"><path fill="#fff" transform="translate(0 83)" d="M0 0h288.61v158.02H0z"/></clipPath></defs></svg>
